{"title":"Bad Neighbors 2014 WEBRip HC XVID AC3 ACAB","uid":10400894,"size":982381321,"categoryP":"video","categoryS":"movies","magnet":"?xt=urn:btih:5a021fa01e9f21fccdc61b107396bc02e6f00c62&amp;dn=Bad+Neighbors+2014+WEBRip+HC+XVID+AC3+ACAB&amp;tr=udp%3A%2F%2Ftracker.openbittorrent.com%3A80&amp;tr=udp%3A%2F%2Fopen.demonii.com%3A1337&amp;tr=udp%3A%2F%2Ftracker.coppersurfer.tk%3A6969&amp;tr=udp%3A%2F%2Fexodus.desync.com%3A6969","seeders":2,"leechers":0,"uploader":"Xetron","files":3,"time":1403363672,"description":" &lt;a href=&quot;http://s1.postimg.org/ibukq3d8v/vbbcbc.jpg&quot; rel=&quot;nofollow&quot; target=&quot;_NEW&quot;&gt;http://s1.postimg.org/ibukq3d8v/vbbcbc.jpg&lt;/a&gt;\nFormat                                   : AVI\nFormat/Info                              : Audio Video Interleave\nFile size                                : 924 MiB\nDuration                                 : 1h 32mn\nOverall bit rate                         : 1 394 Kbps\nWriting library                          : VirtualDub build 30091/release\n\nVideo\nID                                       : 0\nFormat                                   : MPEG-4 Visual\nFormat profile                           : Advanced Simple@L5\nFormat settings, BVOP                    : 2\nFormat settings, QPel                    : No\nFormat settings, GMC                     : No warppoints\nFormat settings, Matrix                  : Default (H.263)\nMuxing mode                              : Packed bitstream\nCodec ID                                 : XVID\nCodec ID/Hint                            : XviD\nDuration                                 : 1h 32mn\nBit rate                                 : 1 192 Kbps\nWidth                                    : 640 pixels\nHeight                                   : 352 pixels\nDisplay aspect ratio                     : 16:9\nFrame rate                               : 25.000 fps\nColor space                              : YUV\nChroma subsampling                       : 4:2:0\nBit depth                                : 8 bits\nScan type                                : Progressive\nCompression mode                         : Lossy\nBits/(Pixel*Frame)                       : 0.212\nStream size                              : 791 MiB (86%)\nWriting library                          : XviD 1.2.1 (UTC 2008-12-04)\n\nAudio\nID                                       : 1\nFormat                                   : AC-3\nFormat/Info                              : Audio Coding 3\nMode extension                           : CM (complete main)\nFormat settings, Endianness              : Big\nCodec ID                                 : 2000\nDuration                                 : 1h 32mn\nBit rate mode                            : Constant\nBit rate                                 : 192 Kbps\nChannel(s)                               : 2 channels\nChannel positions                        : Front: L R\nSampling rate                            : 48.0 KHz\nBit depth                                : 16 bits\nCompression mode                         : Lossy\nStream size                              : 127 MiB (14%)\n\nScreens - &lt;a href=&quot;\nhttp://s1.postimg.org/6o0ivjo3z/image.png&quot; rel=&quot;nofollow&quot; target=&quot;_NEW&quot;&gt;\nhttp://s1.postimg.org/6o0ivjo3z/image.png&lt;/a&gt; &lt;a href=&quot;\nhttp://s1.postimg.org/e59qardn3/image.png&quot; rel=&quot;nofollow&quot; target=&quot;_NEW&quot;&gt;\nhttp://s1.postimg.org/e59qardn3/image.png&lt;/a&gt; &lt;a href=&quot;\nhttp://s1.postimg.org/ew71ua5e7/image.png&quot; rel=&quot;nofollow&quot; target=&quot;_NEW&quot;&gt;\nhttp://s1.postimg.org/ew71ua5e7/image.png&lt;/a&gt; &lt;a href=&quot;\nhttp://s1.postimg.org/7u94831sf/image.png&quot; rel=&quot;nofollow&quot; target=&quot;_NEW&quot;&gt;\nhttp://s1.postimg.org/7u94831sf/image.png&lt;/a&gt;\n","torrent":{"xt":"urn:btih:5a021fa01e9f21fccdc61b107396bc02e6f00c62","amp;dn":"Bad+Neighbors+2014+WEBRip+HC+XVID+AC3+ACAB","amp;tr":["udp%3A%2F%2Ftracker.openbittorrent.com%3A80","udp%3A%2F%2Fopen.demonii.com%3A1337","udp%3A%2F%2Ftracker.coppersurfer.tk%3A6969","udp%3A%2F%2Fexodus.desync.com%3A6969"],"infoHash":"5a021fa01e9f21fccdc61b107396bc02e6f00c62","infoHashBuffer":{"type":"Buffer","data":[90,2,31,160,30,159,33,252,205,198,27,16,115,150,188,2,230,240,12,98]},"announce":[],"urlList":[]}}